# xmcd CD database file generated by OrangeCD 6.5
#
# Track frame offsets:
#	150
#	19712
#	35660
#	50971
#	70729
#	92447
#	109537
#	128417
#	146642
#	159565
#	167830
#	184127
#	199565
#	228276
#	244072
#	271866
#	297762
#
# Disc length: 4266 seconds
#
# Revision: 5
# Processed by: cddbd v1.5.2PL0 Copyright (c) Steve Scherf et al.
# Submitted via: OrangeCD 6.5
#
DISCID=e610a811
DTITLE=Buddy Guy and Junior Wells - Everything Gonna Be Alright
DYEAR=1999
DGENRE=Blues
TTITLE0=One Room Country Shack
TTITLE1=The Things That I Used To Do
TTITLE2=Everyday I Have The Blues
TTITLE3=Driving Wheel
TTITLE4=Help Me
TTITLE5=Come On In This House
TTITLE6=Messin' With The Kid
TTITLE7=Don't Start Me Talking
TTITLE8=Everything Gonna Be Alright
TTITLE9=Got My Mojo Working
TTITLE10=Hide Away
TTITLE11=When I Feel Better
TTITLE12=I Don't Know
TTITLE13=Come To Me
TTITLE14=So Many Roads
TTITLE15=Blue Shadow Is Falling
TTITLE16=Hoochie Coochie Man
EXTD=
EXTT0=
EXTT1=\n
EXTT2=
EXTT3=
EXTT4=
EXTT5=
EXTT6=
EXTT7=
EXTT8=
EXTT9=
EXTT10=
EXTT11=
EXTT12=
EXTT13=Unissued
EXTT14=
EXTT15=
EXTT16=
PLAYORDER=
